<svg width="552" height="520" viewBox="0 0 552 520" fill="none" xmlns="http://www.w3.org/2000/svg">
<g clip-path="url(#clip0)">
<path d="M52.9868 275.028C44.7091 200.802 26.2157 194.332 11.9949 156.866C-0.951578 122.786 -11.3923 67.0338 25.1449 27.1757C81.8995 -34.7874 151.504 28.6167 151.504 28.6167C151.504 28.6167 261.801 113.636 281.076 117.959C300.351 122.282 347.468 165.512 406.365 113.636C465.261 61.7598 515.59 66.0828 531.653 104.99C547.716 143.897 511.307 256.295 502.74 279.351C494.174 302.407 507.024 374.457 520.945 403.277C534.866 432.097 578.77 521.44 484.536 518.557C390.302 515.675 107.6 519.998 107.6 519.998C107.6 519.998 6.11601 517.448 24.074 384.544C39.0658 273.587 56.1993 303.848 52.9868 275.028Z" fill="#F8F8FF"/>
<path d="M89.3951 264.943C101.223 264.943 110.812 252.039 110.812 236.123C110.812 220.206 101.223 207.302 89.3951 207.302C77.5669 207.302 67.9783 220.206 67.9783 236.123C67.9783 252.039 77.5669 264.943 89.3951 264.943Z" fill="#BAC5F4"/>
<path d="M53.5218 290.881C61.5058 290.881 67.9782 282.171 67.9782 271.427C67.9782 260.683 61.5058 251.974 53.5218 251.974C45.5378 251.974 39.0654 260.683 39.0654 271.427C39.0654 282.171 45.5378 290.881 53.5218 290.881Z" fill="#BAC5F4"/>
<path d="M55.6636 237.564C60.0992 237.564 63.6949 232.725 63.6949 226.756C63.6949 220.787 60.0992 215.948 55.6636 215.948C51.2281 215.948 47.6323 220.787 47.6323 226.756C47.6323 232.725 51.2281 237.564 55.6636 237.564Z" fill="#BAC5F4"/>
<path d="M530.582 459.478C542.41 459.478 551.999 446.575 551.999 430.658C551.999 414.741 542.41 401.838 530.582 401.838C518.754 401.838 509.165 414.741 509.165 430.658C509.165 446.575 518.754 459.478 530.582 459.478Z" fill="#BAC5F4"/>
<path d="M16.0423 100.669C20.4779 100.669 24.0736 95.8298 24.0736 89.861C24.0736 83.8922 20.4779 79.0535 16.0423 79.0535C11.6067 79.0535 8.01099 83.8922 8.01099 89.861C8.01099 95.8298 11.6067 100.669 16.0423 100.669Z" fill="#BAC5F4"/>
<path d="M149.898 479.652C170.893 479.652 187.913 456.749 187.913 428.496C187.913 400.244 170.893 377.341 149.898 377.341C128.903 377.341 111.883 400.244 111.883 428.496C111.883 456.749 128.903 479.652 149.898 479.652Z" fill="#E1E6FB"/>
<path d="M401.01 504.149C415.204 504.149 426.71 488.665 426.71 469.565C426.71 450.465 415.204 434.981 401.01 434.981C386.816 434.981 375.31 450.465 375.31 469.565C375.31 488.665 386.816 504.149 401.01 504.149Z" fill="#E1E6FB"/>
<path d="M499.527 309.614C507.216 309.614 513.448 301.227 513.448 290.881C513.448 280.535 507.216 272.148 499.527 272.148C491.839 272.148 485.606 280.535 485.606 290.881C485.606 301.227 491.839 309.614 499.527 309.614Z" fill="#E1E6FB"/>
<path d="M395.656 159.75C411.033 159.75 423.498 142.975 423.498 122.283C423.498 101.592 411.033 84.8174 395.656 84.8174C380.279 84.8174 367.814 101.592 367.814 122.283C367.814 142.975 380.279 159.75 395.656 159.75Z" fill="#E1E6FB"/>
<path d="M140.26 40.1463C147.653 40.1463 153.646 32.0818 153.646 22.1337C153.646 12.1857 147.653 4.12122 140.26 4.12122C132.867 4.12122 126.875 12.1857 126.875 22.1337C126.875 32.0818 132.867 40.1463 140.26 40.1463Z" fill="#E1E6FB"/>
<path d="M97.4263 398.956C104.819 398.956 110.812 390.891 110.812 380.943C110.812 370.995 104.819 362.931 97.4263 362.931C90.0337 362.931 84.0408 370.995 84.0408 380.943C84.0408 390.891 90.0337 398.956 97.4263 398.956Z" fill="#E1E6FB"/>
<path d="M528.976 190.01C536.368 190.01 542.361 181.946 542.361 171.998C542.361 162.05 536.368 153.985 528.976 153.985C521.583 153.985 515.59 162.05 515.59 171.998C515.59 181.946 521.583 190.01 528.976 190.01Z" fill="#BAC5F4"/>
<path d="M507.559 496.944C515.543 496.944 522.015 488.234 522.015 477.49C522.015 466.747 515.543 458.037 507.559 458.037C499.575 458.037 493.103 466.747 493.103 477.49C493.103 488.234 499.575 496.944 507.559 496.944Z" fill="#BAC5F4"/>
<path d="M539.684 498.385C544.119 498.385 547.715 493.546 547.715 487.578C547.715 481.609 544.119 476.77 539.684 476.77C535.248 476.77 531.653 481.609 531.653 487.578C531.653 493.546 535.248 498.385 539.684 498.385Z" fill="#BAC5F4"/>
<path d="M402.749 427.368C402.724 427.241 400.399 414.481 405.149 403.883C409.898 393.285 420.038 388.611 420.139 388.565L420.603 388.356L420.712 388.937C420.736 389.064 423.062 401.825 418.312 412.423C413.563 423.02 403.423 427.694 403.321 427.74L402.858 427.949L402.749 427.368ZM419.967 389.774C417.936 390.825 409.921 395.425 405.909 404.376C401.897 413.327 403.108 423.913 403.493 426.531C405.524 425.483 413.536 420.89 417.552 411.929C421.564 402.978 420.354 392.393 419.967 389.774Z" fill="#3F3D56"/>
<path d="M414.682 408.705C406.146 414.884 402.859 427.156 402.859 427.156C402.859 427.156 413.411 429.411 421.947 423.232C430.482 417.054 433.77 404.782 433.77 404.782C433.77 404.782 423.218 402.527 414.682 408.705Z" fill="#9162E4"/>
<path d="M229.226 371.527C228.211 371.527 227.186 371.508 226.179 371.47L226.202 370.591C227.647 370.645 229.122 370.66 230.574 370.636L230.584 371.516C230.132 371.524 229.68 371.527 229.226 371.527ZM234.987 371.323L234.944 370.445C236.391 370.342 237.857 370.197 239.301 370.016L239.377 370.891C237.922 371.074 236.445 371.22 234.987 371.323ZM221.781 371.186C220.321 371.052 218.846 370.875 217.397 370.661L217.486 369.788C218.925 370 220.388 370.175 221.837 370.308L221.781 371.186ZM243.746 370.218L243.637 369.348C245.075 369.085 246.524 368.781 247.943 368.442L248.085 369.305C246.655 369.646 245.195 369.954 243.746 370.218ZM213.038 369.896C211.597 369.602 210.141 369.264 208.713 368.891L208.868 368.031C210.286 368.401 211.73 368.736 213.161 369.028L213.038 369.896ZM252.385 368.152L252.21 367.298C253.621 366.878 255.041 366.414 256.429 365.918L256.637 366.763C255.238 367.262 253.808 367.729 252.385 368.152ZM204.431 367.648C203.016 367.195 201.593 366.697 200.2 366.167L200.421 365.328C201.803 365.854 203.215 366.348 204.619 366.797L204.431 367.648ZM260.83 365.138L260.59 364.307C261.96 363.734 263.337 363.114 264.685 362.465L264.957 363.283C263.599 363.937 262.211 364.561 260.83 365.138ZM196.021 364.449C194.647 363.841 193.265 363.186 191.913 362.501L192.197 361.689C193.539 362.369 194.91 363.019 196.273 363.622L196.021 364.449ZM268.999 361.205L268.696 360.404C270.012 359.685 271.334 358.917 272.626 358.123L272.959 358.907C271.657 359.707 270.325 360.481 268.999 361.205ZM276.828 356.391L276.466 355.626C277.727 354.76 278.987 353.85 280.208 352.92L280.599 353.664C279.368 354.601 278.099 355.519 276.828 356.391ZM284.263 350.731L283.845 350.01C285.032 349.011 286.218 347.966 287.368 346.902L287.814 347.6C286.655 348.672 285.46 349.725 284.263 350.731ZM172.742 349.492C171.561 348.46 170.381 347.378 169.235 346.278L169.691 345.59C170.829 346.682 172 347.755 173.171 348.779L172.742 349.492ZM291.243 344.278L290.771 343.604C291.878 342.48 292.98 341.309 294.047 340.123L294.543 340.769C293.469 341.965 292.358 343.145 291.243 344.278ZM165.854 342.875C164.754 341.716 163.662 340.511 162.607 339.293L163.113 338.657C164.16 339.867 165.245 341.063 166.336 342.213L165.854 342.875ZM297.708 337.082L297.187 336.464C298.208 335.22 299.218 333.932 300.188 332.637L300.732 333.226C299.754 334.531 298.737 335.828 297.708 337.082ZM159.499 335.537C158.49 334.26 157.493 332.94 156.536 331.615L157.089 331.038C158.038 332.354 159.027 333.663 160.029 334.93L159.499 335.537ZM303.606 329.207L303.041 328.648C303.963 327.298 304.871 325.905 305.74 324.507L306.326 325.034C305.45 326.443 304.535 327.847 303.606 329.207ZM153.726 327.536C152.82 326.158 151.928 324.736 151.074 323.308L151.668 322.794C152.515 324.21 153.401 325.622 154.3 326.99L153.726 327.536ZM308.885 320.714L308.28 320.22C309.096 318.775 309.895 317.287 310.655 315.797L311.279 316.258C310.512 317.759 309.707 319.258 308.885 320.714ZM148.586 318.941C147.788 317.47 147.008 315.957 146.266 314.443L146.896 313.995C147.633 315.499 148.407 317.001 149.198 318.459L148.586 318.941ZM313.5 311.673L312.86 311.248C313.562 309.718 314.245 308.148 314.889 306.579L315.545 306.97C314.896 308.55 314.208 310.132 313.5 311.673H313.5ZM317.408 302.157L316.737 301.803C317.32 300.201 317.88 298.56 318.402 296.927L319.085 297.243C318.56 298.889 317.995 300.542 317.408 302.157H317.408ZM140.37 300.257C139.809 298.637 139.272 296.98 138.774 295.331L139.461 295.031C139.956 296.667 140.489 298.311 141.045 299.918L140.37 300.257ZM320.572 292.239L319.877 291.962C320.334 290.307 320.765 288.615 321.158 286.933L321.862 287.171C321.466 288.866 321.032 290.571 320.572 292.239ZM137.364 290.31C136.929 288.632 136.52 286.918 136.148 285.215L136.856 284.992C137.225 286.682 137.631 288.383 138.063 290.048L137.364 290.31ZM322.957 282.037L322.244 281.838C322.571 280.141 322.871 278.408 323.134 276.688L323.854 276.847C323.589 278.581 323.287 280.327 322.957 282.037ZM135.129 280.059C134.824 278.339 134.548 276.588 134.309 274.852L135.03 274.707C135.268 276.43 135.542 278.169 135.845 279.875L135.129 280.059ZM324.551 271.615L323.826 271.495C324.023 269.771 324.189 268.013 324.32 266.27L325.049 266.349C324.917 268.106 324.749 269.877 324.551 271.615ZM133.687 269.605C133.515 267.862 133.373 266.087 133.266 264.33L133.996 264.265C134.102 266.01 134.243 267.771 134.414 269.501L133.687 269.605ZM325.347 261.062L324.616 261.022C324.681 259.278 324.714 257.508 324.714 255.764H325.446C325.446 257.522 325.413 259.304 325.347 261.062ZM133.044 259.036C133.019 257.957 133.007 256.856 133.007 255.764C133.007 255.086 133.011 254.41 133.021 253.735L133.753 253.751C133.743 254.42 133.738 255.091 133.738 255.764C133.738 256.847 133.751 257.94 133.776 259.012L133.044 259.036ZM133.926 248.495L133.196 248.44C133.287 246.681 133.414 244.905 133.571 243.16L134.298 243.254C134.142 244.986 134.017 246.749 133.926 248.495H133.926ZM324.242 243.124C324.095 241.389 323.894 240.543 323.682 238.815L324.406 238.686C324.62 240.427 324.803 241.756 324.951 243.505L324.242 243.124ZM134.868 238.04L134.145 237.905C134.369 236.164 134.629 234.409 134.919 232.688L135.636 232.862C135.349 234.57 135.09 236.312 134.868 238.04H134.868ZM322.944 233.631C322.665 231.914 322.35 230.185 322.008 228.494L322.719 228.286C323.063 229.99 323.381 231.732 323.662 233.462L322.944 233.631ZM136.601 227.733L135.891 227.518C136.246 225.813 136.64 224.094 137.061 222.408L137.761 222.662C137.344 224.335 136.953 226.041 136.601 227.733ZM320.876 223.413C320.468 221.737 320.022 220.051 319.551 218.401L320.242 218.115C320.718 219.777 321.167 221.477 321.578 223.165L320.876 223.413ZM139.12 217.647L138.429 217.355C138.916 215.691 139.441 214.019 139.99 212.385L140.668 212.715C140.123 214.336 139.602 215.996 139.12 217.647ZM318.034 213.468C317.501 211.847 316.929 210.222 316.335 208.635L317.003 208.273C317.601 209.872 318.177 211.511 318.715 213.143L318.034 213.468ZM142.404 207.876L141.739 207.509C142.35 205.908 143 204.302 143.672 202.736L144.322 203.14C143.656 204.694 143.01 206.287 142.404 207.876ZM314.453 203.899C313.798 202.345 313.105 200.788 312.391 199.271L313.028 198.837C313.747 200.366 314.446 201.935 315.106 203.501L314.453 203.899ZM146.42 198.516L145.786 198.077C146.516 196.552 147.285 195.025 148.074 193.54L148.69 194.014C147.908 195.488 147.144 197.003 146.42 198.516ZM310.155 194.759C309.381 193.278 308.572 191.803 307.748 190.374L308.349 189.873C309.179 191.312 309.995 192.799 310.774 194.291L310.155 194.759ZM151.129 189.643L150.531 189.136C151.375 187.696 152.257 186.262 153.153 184.872L153.731 185.411C152.842 186.791 151.966 188.215 151.129 189.643ZM305.177 186.125C304.296 184.736 303.377 183.354 302.447 182.02L303.008 181.454C303.945 182.799 304.87 184.191 305.759 185.591L305.177 186.125ZM156.49 181.328L155.933 180.757C156.88 179.419 157.867 178.088 158.866 176.799L159.401 177.4C158.409 178.679 157.43 180 156.49 181.328ZM299.565 178.067C298.582 176.78 297.562 175.504 296.535 174.275L297.051 173.651C298.086 174.889 299.113 176.174 300.104 177.471L299.565 178.067ZM162.456 173.637L161.944 173.008C162.99 171.776 164.073 170.559 165.162 169.389L165.649 170.046C164.568 171.206 163.494 172.415 162.456 173.637V173.637ZM293.365 170.653C292.287 169.477 291.175 168.318 290.059 167.207L290.526 166.529C291.65 167.648 292.771 168.816 293.856 170.001L293.365 170.653ZM168.974 166.633L168.512 165.951C169.644 164.842 170.814 163.748 171.989 162.7L172.425 163.407C171.258 164.448 170.098 165.533 168.974 166.633H168.974ZM175.992 160.375L175.584 159.645C176.795 158.664 178.042 157.704 179.29 156.791L179.67 157.543C178.432 158.45 177.194 159.403 175.992 160.375H175.992ZM183.451 154.917L183.1 154.144C184.381 153.301 185.695 152.482 187.005 151.711L187.327 152.502C186.027 153.267 184.723 154.079 183.451 154.917ZM271.757 152.877C270.455 152.097 269.122 151.343 267.793 150.636L268.089 149.831C269.428 150.543 270.772 151.303 272.084 152.089L271.757 152.877ZM191.288 150.305L190.998 149.497C192.337 148.799 193.707 148.129 195.069 147.506L195.329 148.329C193.977 148.947 192.617 149.612 191.288 150.305ZM263.746 148.617C262.392 147.985 261.005 147.382 259.625 146.824L259.858 145.99C261.248 146.551 262.646 147.159 264.011 147.796L263.746 148.617ZM199.45 146.576L199.222 145.739C200.613 145.191 202.032 144.674 203.439 144.205L203.634 145.053C202.238 145.519 200.83 146.031 199.45 146.576H199.45ZM255.449 145.267C254.053 144.788 252.63 144.343 251.218 143.942L251.386 143.085C252.809 143.489 254.243 143.938 255.65 144.42L255.449 145.267ZM207.873 143.764L207.71 142.905C209.135 142.514 210.588 142.157 212.026 141.844L212.156 142.711C210.728 143.021 209.287 143.375 207.873 143.764ZM246.942 142.854C245.517 142.532 244.065 142.246 242.628 142.003L242.729 141.131C244.178 141.376 245.641 141.664 247.077 141.988L246.942 142.854ZM216.475 141.896L216.378 141.023C217.826 140.791 219.3 140.595 220.756 140.443L220.82 141.319C219.374 141.471 217.913 141.665 216.475 141.896ZM238.286 141.391C236.844 141.227 235.377 141.101 233.925 141.017L233.961 140.138C235.424 140.223 236.902 140.35 238.354 140.514L238.286 141.391ZM225.183 140.982L225.152 140.102C226.497 140.035 227.867 140 229.226 140L229.557 140.001L229.555 140.881L229.226 140.88C227.878 140.881 226.517 140.915 225.183 140.982Z" fill="#3F3D56"/>
<path d="M442 427.117H173.829V427.998H442V427.117Z" fill="#3F3D56"/>
<path d="M330.785 279.104L334.443 347.329C334.443 347.329 343.224 374.179 342.858 399.709C342.858 399.709 339.565 409.833 342.126 411.594C344.687 413.354 346.15 414.675 344.687 415.995C343.224 417.316 342.126 420.397 343.224 421.277C344.321 422.158 344.687 423.478 344.321 423.478H333.346C333.346 423.478 335.541 416.876 332.248 415.115C328.955 413.354 330.785 408.953 330.785 408.953L306.272 322.68L286.882 401.91C286.882 401.91 290.175 404.551 287.614 405.871C285.053 407.192 283.955 404.551 285.053 407.192C286.15 409.833 284.687 411.153 284.687 411.594C284.687 412.034 273.711 410.273 273.711 410.273C273.711 410.273 279.199 404.551 276.638 403.23C274.077 401.91 272.98 400.589 273.711 399.709C274.443 398.829 277.37 390.466 277.37 390.466C277.37 390.466 278.833 358.774 279.199 357.453C279.565 356.133 279.199 349.97 279.199 346.889C279.199 343.808 278.833 331.483 279.931 328.402C281.028 325.321 282.126 287.467 287.98 283.065C293.833 278.663 330.785 279.104 330.785 279.104Z" fill="#2F2E41"/>
<path d="M284.321 409.393C284.321 409.393 291.638 427.44 286.516 429.64C281.394 431.841 274.809 430.081 273.345 432.722C271.882 435.363 255.784 438.444 255.419 431.841C255.053 425.239 272.98 412.914 272.98 412.914L275.315 408.39L284.321 409.393Z" fill="#2F2E41"/>
<path d="M343.589 422.598C343.589 422.598 350.906 440.645 345.784 442.846C340.663 445.046 334.077 443.286 332.614 445.927C331.15 448.568 315.053 451.649 314.687 445.046C314.321 438.444 332.248 426.119 332.248 426.119L334.583 421.595L343.589 422.598Z" fill="#2F2E41"/>
<path d="M309.748 196.132C316.416 196.132 321.821 189.629 321.821 181.607C321.821 173.585 316.416 167.081 309.748 167.081C303.08 167.081 297.675 173.585 297.675 181.607C297.675 189.629 303.08 196.132 309.748 196.132Z" fill="#A0616A"/>
<path d="M317.98 189.31L316.516 202.074L305.541 212.198L302.614 207.356V190.63L317.98 189.31Z" fill="#A0616A"/>
<path d="M300.784 205.596C300.784 205.596 312.126 206.916 317.98 202.074L329.687 285.266C329.687 285.266 288.345 289.227 286.516 286.586V260.617L293.833 218.361L300.784 205.596Z" fill="#3F3D56"/>
<path d="M316.972 198.097L320.907 202.075C320.907 202.075 337.004 205.156 335.907 210.438L331.516 272.941L332.98 294.069C332.98 294.069 320.541 290.108 311.028 294.069C301.516 298.031 309.074 208.94 309.074 208.94C309.074 208.94 317.794 199.402 316.972 198.097Z" fill="#9162E4"/>
<path d="M302.614 202.915C302.614 202.915 290.906 213.079 289.443 219.681C287.979 226.284 283.223 295.83 283.223 295.83C283.223 295.83 285.419 294.509 286.516 296.71C287.614 298.911 304.443 206.397 302.614 202.915Z" fill="#9162E4"/>
<path d="M297.68 180.974C297.68 180.974 296.373 178.615 296.876 176.075C297.176 174.633 297.295 173.145 297.228 171.66C297.228 171.66 298.284 167.547 299.339 165.249C300.395 162.951 299.892 161.983 303.21 161.257C306.528 160.532 305.17 155.33 313.917 160.955C314.212 161.451 314.623 161.83 315.097 162.046C315.571 162.261 316.088 162.302 316.582 162.165C318.391 161.741 319.045 164.765 319.045 164.765C319.045 164.765 320.251 163.919 320.704 165.128C321.156 166.338 324.382 164.402 324.382 172.567C324.382 180.732 320.711 188.025 320.711 188.025C320.711 188.025 320.98 174.291 314.998 172.9C309.016 171.509 302.582 167.457 301.023 172.658C300.182 175.577 299.06 178.368 297.68 180.974Z" fill="#2F2E41"/>
<path d="M320.842 184.239C321.494 184.239 322.022 183.392 322.022 182.347C322.022 181.301 321.494 180.454 320.842 180.454C320.19 180.454 319.662 181.301 319.662 182.347C319.662 183.392 320.19 184.239 320.842 184.239Z" fill="#A0616A"/>
<path d="M271.257 318.465C268.362 316.371 264.871 316.531 263.544 316.691C264.049 318.175 265.566 321.961 268.461 324.057C271.363 326.157 274.848 325.992 276.173 325.833C275.668 324.349 274.152 320.561 271.257 318.465Z" fill="#9162E4"/>
<path d="M284.86 360.028H266.766C265.687 360.028 264.651 360.544 263.888 361.462C263.124 362.381 262.695 363.627 262.695 364.926C262.695 366.225 263.124 367.47 263.888 368.389C264.651 369.307 265.687 369.824 266.766 369.824H284.86C285.939 369.822 286.974 369.306 287.736 368.387C288.499 367.469 288.927 366.224 288.927 364.926C288.927 363.627 288.499 362.382 287.736 361.464C286.974 360.545 285.939 360.029 284.86 360.028Z" fill="#9162E4"/>
<path d="M366.794 308.326H265.349C264.169 308.326 263 308.606 261.91 309.149C260.82 309.693 259.829 310.489 258.995 311.493C258.16 312.497 257.498 313.689 257.047 315.001C256.595 316.312 256.363 317.718 256.363 319.138V378.604C256.363 381.471 257.309 384.221 258.995 386.249C260.68 388.276 262.966 389.415 265.349 389.415H366.794C367.974 389.415 369.143 389.136 370.233 388.592C371.323 388.049 372.314 387.253 373.149 386.249C373.983 385.245 374.645 384.053 375.097 382.741C375.548 381.429 375.781 380.024 375.781 378.604V319.138C375.781 317.718 375.548 316.312 375.097 315.001C374.645 313.689 373.983 312.497 373.149 311.493C372.314 310.489 371.323 309.693 370.233 309.149C369.143 308.606 367.974 308.326 366.794 308.326ZM262.839 315.702C263.039 315.658 267.789 314.685 271.723 317.533C275.656 320.38 277.167 325.886 277.23 326.118L277.389 326.712L276.878 326.821C276.15 326.958 275.414 327.023 274.677 327.015C272.89 327.015 270.302 326.66 267.994 324.989C264.061 322.142 262.55 316.637 262.487 316.404L262.328 315.811L262.839 315.702ZM284.86 370.912H266.766C265.447 370.912 264.181 370.281 263.248 369.158C262.315 368.036 261.791 366.513 261.791 364.925C261.791 363.338 262.315 361.815 263.248 360.692C264.181 359.57 265.447 358.939 266.766 358.939H284.86C286.18 358.939 287.445 359.57 288.378 360.692C289.312 361.815 289.836 363.338 289.836 364.925C289.836 366.513 289.312 368.036 288.378 369.158C287.445 370.281 286.18 370.912 284.86 370.912ZM367.186 369.823C367.182 371.554 366.609 373.212 365.592 374.436C364.575 375.659 363.196 376.349 361.758 376.354H348.188C346.749 376.349 345.371 375.659 344.354 374.436C343.337 373.212 342.764 371.554 342.76 369.823V360.027C342.764 358.297 343.337 356.639 344.354 355.415C345.371 354.192 346.749 353.502 348.188 353.497H361.758C363.196 353.502 364.575 354.192 365.592 355.415C366.609 356.639 367.182 358.297 367.186 360.027L367.186 369.823Z" fill="#9162E4"/>
<path d="M352.485 367.919H346.605C346.185 367.919 345.782 368.119 345.485 368.477C345.188 368.834 345.021 369.318 345.021 369.823C345.021 370.329 345.188 370.813 345.485 371.17C345.782 371.528 346.185 371.728 346.605 371.728H352.485C352.905 371.728 353.308 371.528 353.605 371.17C353.902 370.813 354.068 370.329 354.068 369.823C354.068 369.318 353.902 368.834 353.605 368.477C353.308 368.119 352.905 367.919 352.485 367.919ZM352.485 370.64H346.605C346.515 370.64 346.427 370.619 346.345 370.578C346.262 370.537 346.187 370.477 346.124 370.401C346.061 370.326 346.011 370.235 345.976 370.136C345.942 370.037 345.925 369.931 345.925 369.823C345.925 369.716 345.942 369.61 345.976 369.511C346.011 369.411 346.061 369.321 346.124 369.246C346.187 369.17 346.262 369.11 346.345 369.069C346.427 369.028 346.515 369.007 346.605 369.007H352.485C352.574 369.007 352.663 369.028 352.745 369.069C352.828 369.11 352.903 369.17 352.966 369.246C353.029 369.321 353.079 369.411 353.113 369.511C353.148 369.61 353.165 369.716 353.165 369.823C353.165 369.931 353.148 370.037 353.113 370.136C353.079 370.235 353.029 370.326 352.966 370.401C352.903 370.477 352.828 370.537 352.745 370.578C352.663 370.619 352.574 370.64 352.485 370.64Z" fill="#9162E4"/>
<path d="M363.341 367.919H357.461C357.253 367.918 357.047 367.967 356.854 368.063C356.662 368.158 356.487 368.299 356.34 368.476C356.193 368.652 356.076 368.863 355.996 369.094C355.916 369.325 355.875 369.573 355.875 369.823C355.875 370.074 355.916 370.322 355.996 370.553C356.076 370.784 356.193 370.994 356.34 371.171C356.487 371.348 356.662 371.489 356.854 371.584C357.047 371.68 357.253 371.729 357.461 371.728H363.341C363.761 371.728 364.164 371.528 364.461 371.17C364.758 370.813 364.924 370.329 364.924 369.823C364.924 369.318 364.758 368.834 364.461 368.477C364.164 368.119 363.761 367.919 363.341 367.919ZM363.341 370.64H357.461C357.372 370.64 357.283 370.619 357.201 370.578C357.118 370.537 357.043 370.477 356.98 370.401C356.917 370.326 356.867 370.235 356.833 370.136C356.798 370.037 356.781 369.931 356.781 369.823C356.781 369.716 356.798 369.61 356.833 369.511C356.867 369.411 356.917 369.321 356.98 369.246C357.043 369.17 357.118 369.11 357.201 369.069C357.283 369.028 357.372 369.007 357.461 369.007H363.341C363.521 369.008 363.693 369.094 363.82 369.247C363.947 369.4 364.018 369.607 364.018 369.823C364.018 370.04 363.947 370.247 363.82 370.4C363.693 370.553 363.521 370.639 363.341 370.64Z" fill="#9162E4"/>
<path d="M352.485 363.021H346.605C346.185 363.021 345.782 363.221 345.485 363.579C345.188 363.936 345.021 364.42 345.021 364.926C345.021 365.431 345.188 365.915 345.485 366.272C345.782 366.63 346.185 366.83 346.605 366.83H352.485C352.693 366.831 352.899 366.782 353.092 366.686C353.284 366.591 353.459 366.45 353.606 366.273C353.753 366.097 353.87 365.886 353.95 365.655C354.03 365.424 354.071 365.176 354.071 364.926C354.071 364.675 354.03 364.427 353.95 364.196C353.87 363.965 353.753 363.755 353.606 363.578C353.459 363.401 353.284 363.26 353.092 363.165C352.899 363.069 352.693 363.02 352.485 363.021ZM352.485 365.742H346.605C346.425 365.742 346.252 365.656 346.125 365.503C345.998 365.35 345.926 365.142 345.926 364.926C345.926 364.709 345.998 364.501 346.125 364.348C346.252 364.195 346.425 364.109 346.605 364.109H352.485C352.665 364.109 352.838 364.195 352.965 364.348C353.092 364.501 353.164 364.709 353.164 364.926C353.164 365.142 353.092 365.35 352.965 365.503C352.838 365.656 352.665 365.742 352.485 365.742Z" fill="#9162E4"/>
<path d="M363.341 363.021H357.461C357.253 363.02 357.047 363.069 356.854 363.165C356.662 363.26 356.487 363.401 356.34 363.578C356.193 363.755 356.076 363.965 355.996 364.196C355.916 364.427 355.875 364.675 355.875 364.926C355.875 365.176 355.916 365.424 355.996 365.655C356.076 365.886 356.193 366.097 356.34 366.273C356.487 366.45 356.662 366.591 356.854 366.686C357.047 366.782 357.253 366.831 357.461 366.83H363.341C363.761 366.83 364.164 366.63 364.461 366.272C364.758 365.915 364.924 365.431 364.924 364.926C364.924 364.42 364.758 363.936 364.461 363.579C364.164 363.221 363.761 363.021 363.341 363.021ZM363.341 365.742H357.461C357.281 365.742 357.108 365.656 356.981 365.503C356.854 365.35 356.782 365.142 356.782 364.926C356.782 364.709 356.854 364.501 356.981 364.348C357.108 364.195 357.281 364.109 357.461 364.109H363.341C363.521 364.109 363.694 364.195 363.821 364.348C363.948 364.501 364.02 364.709 364.02 364.926C364.02 365.142 363.948 365.35 363.821 365.503C363.694 365.656 363.521 365.742 363.341 365.742Z" fill="#9162E4"/>
<path d="M352.485 358.123H346.605C346.185 358.123 345.782 358.323 345.485 358.681C345.188 359.038 345.021 359.522 345.021 360.028C345.021 360.533 345.188 361.017 345.485 361.374C345.782 361.732 346.185 361.932 346.605 361.932H352.485C352.905 361.932 353.308 361.732 353.605 361.374C353.902 361.017 354.068 360.533 354.068 360.028C354.068 359.522 353.902 359.038 353.605 358.681C353.308 358.323 352.905 358.123 352.485 358.123ZM352.485 360.844H346.605C346.425 360.844 346.252 360.758 346.125 360.605C345.998 360.452 345.926 360.244 345.926 360.028C345.926 359.811 345.998 359.603 346.125 359.45C346.252 359.297 346.425 359.211 346.605 359.211H352.485C352.665 359.211 352.838 359.297 352.965 359.45C353.092 359.603 353.164 359.811 353.164 360.028C353.164 360.244 353.092 360.452 352.965 360.605C352.838 360.758 352.665 360.844 352.485 360.844Z" fill="#9162E4"/>
<path d="M363.341 358.123H357.461C357.253 358.122 357.047 358.171 356.854 358.267C356.662 358.363 356.487 358.503 356.34 358.68C356.193 358.857 356.076 359.067 355.996 359.298C355.916 359.529 355.875 359.777 355.875 360.028C355.875 360.278 355.916 360.526 355.996 360.757C356.076 360.988 356.193 361.199 356.34 361.376C356.487 361.552 356.662 361.693 356.854 361.788C357.047 361.884 357.253 361.933 357.461 361.932H363.341C363.761 361.932 364.163 361.731 364.459 361.373C364.756 361.016 364.922 360.532 364.922 360.028C364.922 359.523 364.756 359.039 364.459 358.682C364.163 358.325 363.761 358.124 363.341 358.123ZM363.341 360.844H357.461C357.281 360.844 357.108 360.758 356.981 360.605C356.854 360.452 356.782 360.244 356.782 360.028C356.782 359.811 356.854 359.603 356.981 359.45C357.108 359.297 357.281 359.211 357.461 359.211H363.341C363.521 359.211 363.694 359.297 363.821 359.45C363.948 359.603 364.02 359.811 364.02 360.028C364.02 360.244 363.948 360.452 363.821 360.605C363.694 360.758 363.521 360.844 363.341 360.844Z" fill="#9162E4"/>
<path d="M334.809 294.95L332.186 305.246C332.186 305.246 331.516 324.441 322.736 321.8C313.955 319.159 325.297 296.71 325.297 296.71L327.858 291.868L334.809 294.95Z" fill="#A0616A"/>
<path d="M285.053 294.95L282.43 305.246C282.43 305.246 281.76 324.441 272.98 321.8C264.199 319.159 275.541 296.71 275.541 296.71L278.102 291.868L285.053 294.95Z" fill="#A0616A"/>
<path d="M332.98 207.357C332.98 207.357 338.833 205.596 340.662 217.48C342.492 229.365 344.687 263.258 344.687 263.258L335.906 298.911C335.906 298.911 327.126 293.189 325.297 294.069L332.206 263.117L326.394 231.566C326.394 231.566 331.516 207.357 332.98 207.357Z" fill="#9162E4"/>
<path opacity="0.15" d="M324.469 232.168L332.151 262.979L324.469 294.231L328.859 262.979L324.469 232.168Z" fill="black"/>
<path d="M289.443 231.566L276.272 294.069C276.272 294.069 283.22 296.828 285.781 299.029L289.443 231.566Z" fill="#9162E4"/>
<path d="M151.279 388.643C171.485 388.643 187.864 368.936 187.864 344.626C187.864 320.317 171.485 300.61 151.279 300.61C131.073 300.61 114.694 320.317 114.694 344.626C114.694 368.936 131.073 388.643 151.279 388.643Z" fill="#3F3D56"/>
<path opacity="0.1" d="M151.279 382.481C168.656 382.481 182.742 365.533 182.742 344.627C182.742 323.72 168.656 306.772 151.279 306.772C133.902 306.772 119.815 323.72 119.815 344.627C119.815 365.533 133.902 382.481 151.279 382.481Z" fill="black"/>
<path d="M149.771 366.964V361.454C147.456 361.4 145.062 360.418 143.665 359.054L144.623 355.399C146.283 356.896 148.296 357.718 150.37 357.745C153.204 357.745 155.12 355.508 155.12 352.399C155.12 349.399 153.563 347.544 150.609 345.907C146.538 343.725 144.024 341.216 144.024 336.47C144.024 331.942 146.379 328.506 150.051 327.688V322.178H152.525V327.469C154.37 327.5 156.17 328.162 157.714 329.379L156.716 332.979C155.235 331.76 153.481 331.113 151.687 331.124C148.614 331.124 147.456 333.633 147.456 335.816C147.456 338.652 148.933 340.07 152.406 342.034C156.516 344.326 158.592 347.162 158.592 352.017C158.592 356.326 156.397 360.364 152.286 361.29V366.964H149.771Z" fill="#5E35B1"/>
<path d="M189.927 434.16C164.094 438.795 137.833 438.795 112 434.16V423.596C137.86 427.762 164.067 427.762 189.927 423.596V434.16Z" fill="#3F3D56"/>
<path d="M189.927 417.874C164.094 422.509 137.833 422.509 112 417.874V407.31C137.86 411.476 164.067 411.476 189.927 407.31V417.874Z" fill="#3F3D56"/>
<path d="M189.927 401.587C164.094 406.223 137.833 406.223 112 401.587V391.023C137.86 395.19 164.067 395.19 189.927 391.023V401.587Z" fill="#3F3D56"/>
<g clip-path="url(#clip1)">
<path d="M396.001 372.423L407.826 371.711C407.826 371.711 410.191 358.896 419.651 354.625V340.386C419.651 340.386 430.688 346.082 433.053 346.794C435.417 347.506 456.702 338.25 481.14 351.777C501.723 363.168 497.143 383.152 495.18 389.168C494.827 390.257 494.272 391.285 493.54 392.207C491.838 394.343 488.393 398.615 486.658 400.188C484.293 402.324 488.164 414.213 485.082 415.139C482.717 415.851 477.987 406.595 475.622 407.307C462.893 411.184 449.178 411.571 436.206 408.418C435.778 408.31 435.321 408.341 434.915 408.505C434.509 408.668 434.179 408.955 433.983 409.315C432.926 411.266 430.829 414.84 429.135 415.858C426.77 417.282 426.77 408.026 424.405 406.603C422.04 405.179 396.025 384.533 396.025 384.533L396.001 372.423Z" fill="url(#paint0_linear)"/>
<path d="M494.951 374.616C494.951 374.616 504.632 368.415 509.811 373.021C514.99 377.627 514.179 382.433 510.016 383.579C506.91 384.433 502.07 379.735 504.159 376.716C506.248 373.697 509.898 372.081 514.092 374.616C518.286 377.15 520.17 382.233 520.398 385.074" stroke="#E5A4ED" stroke-width="3.9416" stroke-miterlimit="10" stroke-linecap="round"/>
<path d="M421.22 377.35C423.645 377.35 425.611 375.574 425.611 373.384C425.611 371.194 423.645 369.419 421.22 369.419C418.795 369.419 416.829 371.194 416.829 373.384C416.829 375.574 418.795 377.35 421.22 377.35Z" fill="#E5A4ED"/>
<path d="M439.162 349.235C439.162 349.235 456.789 344.964 468.227 349.663" stroke="#E5A4ED" stroke-width="0.9854" stroke-linecap="round" stroke-linejoin="round"/>
<path d="M454.069 333.416C463.804 333.416 471.696 326.289 471.696 317.498C471.696 308.706 463.804 301.579 454.069 301.579C444.334 301.579 436.442 308.706 436.442 317.498C436.442 326.289 444.334 333.416 454.069 333.416Z" fill="url(#paint1_linear)"/>
<path d="M453.951 330.59C461.918 330.59 468.377 324.757 468.377 317.562C468.377 310.367 461.918 304.534 453.951 304.534C445.983 304.534 439.524 310.367 439.524 317.562C439.524 324.757 445.983 330.59 453.951 330.59Z" stroke="url(#paint2_linear)" stroke-width="0.9854"/>
<path d="M459.236 323.743C459.236 322.954 458.958 322.29 458.401 321.751C457.853 321.211 456.923 320.723 455.612 320.286C453.787 319.729 452.455 319.005 451.615 318.114C450.784 317.214 450.369 316.075 450.369 314.695C450.369 313.29 450.776 312.138 451.59 311.238C452.412 310.338 453.539 309.803 454.97 309.632V306.817H456.884V309.644C458.324 309.842 459.442 310.446 460.239 311.457C461.044 312.468 461.447 313.851 461.447 315.608H459.082C459.082 314.4 458.795 313.44 458.221 312.729C457.647 312.018 456.872 311.662 455.895 311.662C454.875 311.662 454.096 311.928 453.556 312.459C453.016 312.982 452.746 313.714 452.746 314.657C452.746 315.531 453.029 316.229 453.594 316.751C454.168 317.265 455.107 317.737 456.409 318.165C457.72 318.585 458.739 319.052 459.468 319.566C460.204 320.071 460.744 320.663 461.087 321.339C461.438 322.016 461.614 322.809 461.614 323.717C461.614 325.165 461.177 326.33 460.303 327.213C459.438 328.095 458.221 328.618 456.653 328.78V331.235H454.751V328.78C453.158 328.635 451.907 328.069 450.998 327.084C450.099 326.09 449.649 324.745 449.649 323.049H452.027C452.027 324.24 452.339 325.156 452.965 325.799C453.59 326.442 454.477 326.763 455.625 326.763C456.747 326.763 457.63 326.493 458.272 325.953C458.915 325.413 459.236 324.677 459.236 323.743Z" fill="#E5A4ED"/>
<path d="M474.605 298.959C481.014 298.959 486.209 294.267 486.209 288.48C486.209 282.692 481.014 278 474.605 278C468.196 278 463.001 282.692 463.001 288.48C463.001 294.267 468.196 298.959 474.605 298.959Z" fill="url(#paint3_linear)"/>
<path d="M474.526 297.101C479.772 297.101 484.025 293.26 484.025 288.522C484.025 283.784 479.772 279.944 474.526 279.944C469.28 279.944 465.027 283.784 465.027 288.522C465.027 293.26 469.28 297.101 474.526 297.101Z" stroke="url(#paint4_linear)" stroke-width="0.9854"/>
<path d="M477.998 292.793C477.998 292.274 477.815 291.837 477.449 291.482C477.088 291.126 476.476 290.805 475.613 290.517C474.412 290.151 473.535 289.674 472.982 289.088C472.435 288.496 472.162 287.746 472.162 286.838C472.162 285.913 472.43 285.155 472.966 284.563C473.507 283.97 474.248 283.618 475.19 283.505V281.653H476.45V283.514C477.398 283.643 478.134 284.041 478.658 284.706C479.188 285.372 479.453 286.282 479.453 287.439H477.897C477.897 286.643 477.708 286.012 477.33 285.544C476.952 285.076 476.442 284.842 475.799 284.842C475.128 284.842 474.615 285.017 474.26 285.366C473.904 285.71 473.727 286.192 473.727 286.813C473.727 287.388 473.913 287.847 474.285 288.191C474.663 288.53 475.28 288.84 476.138 289.122C477 289.398 477.671 289.705 478.151 290.044C478.636 290.376 478.991 290.766 479.216 291.211C479.448 291.657 479.563 292.178 479.563 292.776C479.563 293.729 479.276 294.496 478.7 295.077C478.131 295.658 477.33 296.001 476.298 296.109V297.724H475.046V296.109C473.997 296.013 473.174 295.641 472.576 294.992C471.984 294.338 471.688 293.453 471.688 292.336H473.253C473.253 293.12 473.459 293.723 473.871 294.146C474.282 294.569 474.866 294.781 475.622 294.781C476.36 294.781 476.941 294.603 477.364 294.248C477.787 293.892 477.998 293.408 477.998 292.793Z" fill="#E5A4ED"/>
<path d="M433.092 302.932C437.676 302.932 441.393 299.575 441.393 295.435C441.393 291.295 437.676 287.938 433.092 287.938C428.507 287.938 424.791 291.295 424.791 295.435C424.791 299.575 428.507 302.932 433.092 302.932Z" fill="url(#paint5_linear)"/>
<path d="M433.029 301.6C436.782 301.6 439.824 298.853 439.824 295.463C439.824 292.074 436.782 289.327 433.029 289.327C429.276 289.327 426.233 292.074 426.233 295.463C426.233 298.853 429.276 301.6 433.029 301.6Z" stroke="url(#paint6_linear)" stroke-width="0.9854"/>
<path d="M435.522 299.071C435.522 298.7 435.391 298.387 435.128 298.133C434.87 297.879 434.432 297.649 433.815 297.443C432.955 297.181 432.328 296.84 431.932 296.42C431.541 295.996 431.345 295.46 431.345 294.81C431.345 294.148 431.537 293.605 431.92 293.182C432.308 292.758 432.838 292.506 433.512 292.425V291.1H434.414V292.431C435.092 292.524 435.619 292.808 435.994 293.285C436.373 293.761 436.563 294.413 436.563 295.24H435.449C435.449 294.671 435.314 294.219 435.044 293.884C434.773 293.549 434.408 293.382 433.948 293.382C433.468 293.382 433.101 293.507 432.846 293.757C432.592 294.003 432.465 294.348 432.465 294.792C432.465 295.203 432.598 295.532 432.865 295.778C433.135 296.021 433.577 296.243 434.19 296.444C434.808 296.642 435.288 296.862 435.631 297.104C435.978 297.342 436.232 297.621 436.393 297.939C436.559 298.258 436.642 298.631 436.642 299.059C436.642 299.741 436.436 300.29 436.024 300.706C435.617 301.121 435.044 301.367 434.305 301.444V302.6H433.409V301.444C432.659 301.375 432.07 301.109 431.642 300.645C431.218 300.177 431.006 299.543 431.006 298.744H432.126C432.126 299.305 432.273 299.737 432.568 300.04C432.863 300.342 433.28 300.494 433.821 300.494C434.35 300.494 434.765 300.367 435.068 300.112C435.371 299.858 435.522 299.511 435.522 299.071Z" fill="#E5A4ED"/>
</g>
</g>
<defs>
<linearGradient id="paint0_linear" x1="484.49" y1="403.313" x2="408.688" y2="342.323" gradientUnits="userSpaceOnUse">
<stop stop-color="#E5A4ED"/>
<stop offset="1" stop-color="#7A5BF5"/>
</linearGradient>
<linearGradient id="paint1_linear" x1="2006.29" y1="3449.34" x2="3304.05" y2="1308.85" gradientUnits="userSpaceOnUse">
<stop stop-color="#E5A4ED"/>
<stop offset="1" stop-color="#7A5BF5"/>
</linearGradient>
<linearGradient id="paint2_linear" x1="2018.05" y1="1752.5" x2="3102.9" y2="1752.5" gradientUnits="userSpaceOnUse">
<stop stop-color="#E5A4ED"/>
<stop offset="1" stop-color="#7A5BF5"/>
</linearGradient>
<linearGradient id="paint3_linear" x1="2331.95" y1="1185.32" x2="2894.34" y2="257.553" gradientUnits="userSpaceOnUse">
<stop stop-color="#E5A4ED"/>
<stop offset="1" stop-color="#7A5BF5"/>
</linearGradient>
<linearGradient id="paint4_linear" x1="2119.04" y1="533.531" x2="2595.9" y2="533.531" gradientUnits="userSpaceOnUse">
<stop stop-color="#E5A4ED"/>
<stop offset="1" stop-color="#7A5BF5"/>
</linearGradient>
<linearGradient id="paint5_linear" x1="977.97" y1="961.583" x2="1265.96" y2="486.669" gradientUnits="userSpaceOnUse">
<stop stop-color="#E5A4ED"/>
<stop offset="1" stop-color="#7A5BF5"/>
</linearGradient>
<linearGradient id="paint6_linear" x1="940.639" y1="590.399" x2="1188.67" y2="590.399" gradientUnits="userSpaceOnUse">
<stop stop-color="#E5A4ED"/>
<stop offset="1" stop-color="#7A5BF5"/>
</linearGradient>
<clipPath id="clip0">
<rect width="552" height="520" fill="white"/>
</clipPath>
<clipPath id="clip1">
<rect width="126" height="138" fill="white" transform="translate(396 278)"/>
</clipPath>
</defs>
</svg>
